<svg xmlns="http://www.w3.org/2000/svg" xmlns:xlink="http://www.w3.org/1999/xlink" width="50" zoomAndPan="magnify" viewBox="0 0 37.5 37.499999" height="50" preserveAspectRatio="xMidYMid meet" version="1.0"><defs><clipPath id="ee2606e387"><path d="M 0 0.101562 L 28 0.101562 L 28 29 L 0 29 Z M 0 0.101562 " clip-rule="nonzero"/></clipPath><clipPath id="b5d2c77ffa"><path d="M 18.621094 0.0976562 C 9.105469 0.0976562 9.699219 4.246094 9.699219 4.246094 L 9.710938 8.546875 L 18.789062 8.546875 L 18.789062 9.835938 L 6.105469 9.835938 C 6.105469 9.835938 0.015625 9.140625 0.015625 18.796875 C 0.015625 28.449219 5.332031 28.109375 5.332031 28.109375 L 8.5 28.109375 L 8.5 23.628906 C 8.5 23.628906 8.332031 18.285156 13.730469 18.285156 L 22.734375 18.285156 C 22.734375 18.285156 27.792969 18.367188 27.792969 13.367188 L 27.792969 5.101562 C 27.792969 5.101562 28.5625 0.0976562 18.621094 0.0976562 Z M 13.613281 2.988281 C 14.515625 2.988281 15.246094 3.722656 15.246094 4.632812 C 15.246094 5.539062 14.515625 6.273438 13.613281 6.273438 C 12.710938 6.273438 11.980469 5.539062 11.980469 4.632812 C 11.980469 3.722656 12.710938 2.988281 13.613281 2.988281 Z M 13.613281 2.988281 " clip-rule="nonzero"/></clipPath><clipPath id="8c3e404851"><path d="M 9 9 L 37.007812 9 L 37.007812 37.007812 L 9 37.007812 Z M 9 9 " clip-rule="nonzero"/></clipPath><clipPath id="c1df83070e"><path d="M 18.890625 37.59375 C 28.40625 37.59375 27.808594 33.441406 27.808594 33.441406 L 27.800781 29.144531 L 18.71875 29.144531 L 18.71875 27.851562 L 31.40625 27.851562 C 31.40625 27.851562 37.496094 28.546875 37.496094 18.894531 C 37.496094 9.238281 32.179688 9.582031 32.179688 9.582031 L 29.007812 9.582031 L 29.007812 14.0625 C 29.007812 14.0625 29.179688 19.40625 23.78125 19.40625 L 14.773438 19.40625 C 14.773438 19.40625 9.714844 19.324219 9.714844 24.324219 L 9.714844 32.589844 C 9.714844 32.589844 8.949219 37.59375 18.890625 37.59375 Z M 23.898438 34.699219 C 22.992188 34.699219 22.261719 33.964844 22.261719 33.058594 C 22.261719 32.148438 22.992188 31.414062 23.898438 31.414062 C 24.800781 31.414062 25.53125 32.148438 25.53125 33.058594 C 25.53125 33.964844 24.800781 34.699219 23.898438 34.699219 Z M 23.898438 34.699219 " clip-rule="nonzero"/></clipPath></defs><g clip-path="url(#ee2606e387)"><g clip-path="url(#b5d2c77ffa)"><path fill="#ffffff" d="M 0.015625 0.101562 L 0.015625 28.449219 L 28.5625 28.449219 L 28.5625 0.101562 Z M 0.015625 0.101562 " fill-opacity="1" fill-rule="nonzero"/></g></g><g clip-path="url(#8c3e404851)"><g clip-path="url(#c1df83070e)"><path fill="#ffffff" d="M 8.949219 9.238281 L 8.949219 37.007812 L 37.007812 37.007812 L 37.007812 9.238281 Z M 8.949219 9.238281 " fill-opacity="1" fill-rule="nonzero"/></g></g></svg>