<svg xmlns="http://www.w3.org/2000/svg" xmlns:xlink="http://www.w3.org/1999/xlink" width="50" zoomAndPan="magnify" viewBox="0 0 37.5 37.499999" height="50" preserveAspectRatio="xMidYMid meet" version="1.0"><defs><clipPath id="243cf5bd5d"><path d="M 10 33 L 33 33 L 33 37.007812 L 10 37.007812 Z M 10 33 " clip-rule="nonzero"/></clipPath></defs><path fill="#ffffff" d="M 13.960938 28.753906 C 13.960938 28.753906 12.539062 29.582031 14.96875 29.859375 C 17.917969 30.195312 19.421875 30.148438 22.671875 29.535156 C 22.671875 29.535156 23.523438 30.070312 24.71875 30.53125 C 17.4375 33.652344 8.242188 30.351562 13.960938 28.753906 " fill-opacity="1" fill-rule="nonzero"/><path fill="#ffffff" d="M 13.070312 24.683594 C 13.070312 24.683594 11.476562 25.863281 13.910156 26.117188 C 17.058594 26.441406 19.542969 26.464844 23.84375 25.636719 C 23.84375 25.636719 24.441406 26.242188 25.375 26.570312 C 16.574219 29.144531 6.769531 26.773438 13.070312 24.683594 " fill-opacity="1" fill-rule="nonzero"/><path fill="#ffffff" d="M 20.570312 17.777344 C 22.363281 19.84375 20.097656 21.699219 20.097656 21.699219 C 20.097656 21.699219 24.652344 19.351562 22.558594 16.40625 C 20.605469 13.660156 19.109375 12.296875 27.21875 7.59375 C 27.21875 7.59375 14.488281 10.769531 20.570312 17.777344 " fill-opacity="1" fill-rule="nonzero"/><path fill="#ffffff" d="M 30.195312 31.765625 C 30.195312 31.765625 31.246094 32.632812 29.039062 33.304688 C 24.835938 34.574219 11.550781 34.960938 7.859375 33.355469 C 6.53125 32.777344 9.019531 31.976562 9.804688 31.804688 C 10.617188 31.628906 11.085938 31.664062 11.085938 31.664062 C 9.609375 30.625 1.546875 33.703125 6.992188 34.585938 C 21.832031 36.992188 34.046875 33.503906 30.195312 31.765625 " fill-opacity="1" fill-rule="nonzero"/><path fill="#ffffff" d="M 14.644531 20.464844 C 14.644531 20.464844 7.882812 22.070312 12.25 22.652344 C 14.09375 22.902344 17.765625 22.84375 21.1875 22.558594 C 23.984375 22.320312 26.792969 21.820312 26.792969 21.820312 C 26.792969 21.820312 25.808594 22.242188 25.09375 22.730469 C 18.230469 24.535156 4.972656 23.695312 8.789062 21.847656 C 12.019531 20.289062 14.644531 20.464844 14.644531 20.464844 " fill-opacity="1" fill-rule="nonzero"/><path fill="#ffffff" d="M 26.765625 27.242188 C 33.742188 23.617188 30.515625 20.132812 28.265625 20.601562 C 27.714844 20.71875 27.46875 20.816406 27.46875 20.816406 C 27.46875 20.816406 27.671875 20.496094 28.0625 20.355469 C 32.519531 18.789062 35.945312 24.976562 26.625 27.425781 C 26.625 27.425781 26.734375 27.328125 26.765625 27.242188 " fill-opacity="1" fill-rule="nonzero"/><path fill="#ffffff" d="M 22.558594 -0.00390625 C 22.558594 -0.00390625 26.425781 3.863281 18.894531 9.804688 C 12.859375 14.574219 17.519531 17.292969 18.894531 20.398438 C 15.371094 17.21875 12.78125 14.417969 14.519531 11.8125 C 17.066406 7.992188 24.121094 6.136719 22.558594 -0.00390625 " fill-opacity="1" fill-rule="nonzero"/><g clip-path="url(#243cf5bd5d)"><path fill="#ffffff" d="M 15.328125 37.066406 C 22.023438 37.496094 32.308594 36.828125 32.550781 33.660156 C 32.550781 33.660156 32.082031 34.859375 27.015625 35.8125 C 21.300781 36.890625 14.25 36.765625 10.070312 36.074219 C 10.070312 36.074219 10.925781 36.78125 15.328125 37.066406 " fill-opacity="1" fill-rule="nonzero"/></g></svg>