<svg xmlns="http://www.w3.org/2000/svg" xmlns:xlink="http://www.w3.org/1999/xlink" width="50" zoomAndPan="magnify" viewBox="0 0 37.5 37.499999" height="50" preserveAspectRatio="xMidYMid meet" version="1.0"><defs><clipPath id="52ed9d3ede"><path d="M 0.511719 0 L 37.007812 0 L 37.007812 37.007812 L 0.511719 37.007812 Z M 0.511719 0 " clip-rule="nonzero"/></clipPath></defs><g clip-path="url(#52ed9d3ede)"><path fill="#ffffff" d="M 18.9375 37.4375 C 18.71875 37.441406 18.503906 37.40625 18.292969 37.339844 L 6.078125 33.296875 C 5.710938 33.175781 5.402344 32.96875 5.15625 32.671875 C 4.90625 32.375 4.757812 32.039062 4.703125 31.65625 L 0.632812 2.359375 C 0.59375 2.070312 0.613281 1.785156 0.699219 1.507812 C 0.78125 1.226562 0.917969 0.976562 1.113281 0.753906 C 1.304688 0.535156 1.539062 0.363281 1.804688 0.242188 C 2.074219 0.121094 2.355469 0.0625 2.648438 0.0625 L 35.226562 0.0625 C 35.519531 0.0625 35.800781 0.121094 36.066406 0.242188 C 36.335938 0.363281 36.566406 0.535156 36.761719 0.753906 C 36.953125 0.972656 37.09375 1.222656 37.175781 1.503906 C 37.261719 1.785156 37.28125 2.066406 37.242188 2.355469 L 33.171875 31.652344 C 33.117188 32.035156 32.96875 32.375 32.71875 32.671875 C 32.472656 32.964844 32.164062 33.175781 31.796875 33.296875 L 19.582031 37.339844 C 19.371094 37.40625 19.15625 37.441406 18.9375 37.4375 Z M 8.566406 29.863281 L 18.9375 33.289062 L 29.308594 29.855469 L 32.890625 4.101562 L 4.992188 4.101562 Z M 8.566406 29.863281 " fill-opacity="1" fill-rule="nonzero"/></g><path fill="#ffffff" d="M 15.882812 28.347656 C 15.5625 28.347656 15.257812 28.277344 14.972656 28.132812 L 10.898438 26.113281 C 10.660156 25.992188 10.449219 25.832031 10.273438 25.628906 C 10.09375 25.425781 9.964844 25.199219 9.878906 24.945312 C 9.792969 24.691406 9.757812 24.429688 9.777344 24.164062 C 9.796875 23.894531 9.867188 23.640625 9.988281 23.402344 C 10.109375 23.160156 10.273438 22.953125 10.476562 22.777344 C 10.679688 22.601562 10.910156 22.472656 11.167969 22.386719 C 11.421875 22.304688 11.6875 22.269531 11.957031 22.289062 C 12.226562 22.308594 12.480469 22.378906 12.722656 22.5 L 13.847656 23.058594 L 13.847656 12.183594 L 9.773438 12.183594 C 9.503906 12.183594 9.246094 12.132812 8.996094 12.03125 C 8.746094 11.925781 8.527344 11.78125 8.335938 11.59375 C 8.144531 11.402344 7.996094 11.183594 7.894531 10.9375 C 7.789062 10.6875 7.738281 10.429688 7.738281 10.164062 C 7.738281 9.894531 7.789062 9.636719 7.894531 9.390625 C 7.996094 9.140625 8.144531 8.925781 8.335938 8.734375 C 8.527344 8.546875 8.746094 8.398438 8.996094 8.296875 C 9.246094 8.195312 9.503906 8.144531 9.773438 8.144531 L 15.882812 8.144531 C 16.152344 8.144531 16.414062 8.195312 16.664062 8.296875 C 16.910156 8.398438 17.132812 8.546875 17.324219 8.734375 C 17.515625 8.925781 17.660156 9.140625 17.765625 9.390625 C 17.867188 9.636719 17.917969 9.894531 17.917969 10.164062 L 17.917969 26.328125 C 17.917969 26.59375 17.867188 26.851562 17.765625 27.101562 C 17.660156 27.347656 17.515625 27.566406 17.324219 27.753906 C 17.132812 27.945312 16.910156 28.089844 16.664062 28.191406 C 16.414062 28.296875 16.152344 28.347656 15.882812 28.347656 Z M 15.882812 28.347656 " fill-opacity="1" fill-rule="nonzero"/><path fill="#ffffff" d="M 21.992188 28.347656 C 21.742188 28.347656 21.503906 28.304688 21.269531 28.214844 C 21.039062 28.128906 20.828125 28.003906 20.644531 27.839844 C 20.457031 27.675781 20.308594 27.484375 20.191406 27.265625 C 20.074219 27.050781 20.003906 26.816406 19.972656 26.574219 C 19.941406 26.328125 19.957031 26.085938 20.015625 25.847656 C 20.074219 25.609375 20.175781 25.386719 20.316406 25.183594 C 20.457031 24.980469 20.628906 24.808594 20.832031 24.667969 C 21.035156 24.527344 21.257812 24.425781 21.5 24.367188 L 24.246094 23.6875 L 24.734375 20.265625 L 23.007812 20.265625 C 22.605469 20.265625 22.214844 20.1875 21.839844 20.035156 C 21.464844 19.878906 21.136719 19.660156 20.851562 19.378906 C 20.5625 19.09375 20.34375 18.765625 20.1875 18.394531 C 20.03125 18.023438 19.957031 17.636719 19.957031 17.234375 L 19.957031 11.171875 C 19.957031 10.773438 20.03125 10.386719 20.1875 10.011719 C 20.34375 9.640625 20.5625 9.316406 20.851562 9.03125 C 21.136719 8.746094 21.464844 8.527344 21.839844 8.375 C 22.214844 8.21875 22.605469 8.144531 23.007812 8.144531 L 28.097656 8.144531 C 28.371094 8.144531 28.628906 8.195312 28.878906 8.296875 C 29.128906 8.398438 29.347656 8.546875 29.539062 8.734375 C 29.730469 8.925781 29.878906 9.140625 29.980469 9.390625 C 30.082031 9.636719 30.136719 9.894531 30.136719 10.164062 C 30.136719 10.429688 30.082031 10.6875 29.980469 10.9375 C 29.878906 11.183594 29.730469 11.402344 29.539062 11.59375 C 29.347656 11.78125 29.128906 11.925781 28.878906 12.03125 C 28.628906 12.132812 28.371094 12.183594 28.097656 12.183594 L 24.027344 12.183594 L 24.027344 16.222656 L 25.90625 16.222656 C 26.3125 16.222656 26.699219 16.300781 27.074219 16.457031 C 27.449219 16.609375 27.78125 16.828125 28.066406 17.113281 C 28.351562 17.394531 28.574219 17.722656 28.726562 18.09375 C 28.882812 18.464844 28.960938 18.851562 28.960938 19.253906 C 28.960938 19.402344 28.949219 19.546875 28.929688 19.691406 L 28.078125 25.601562 C 28.019531 26.007812 27.851562 26.363281 27.574219 26.667969 C 27.296875 26.972656 26.957031 27.175781 26.558594 27.277344 L 22.484375 28.285156 C 22.324219 28.328125 22.160156 28.347656 21.992188 28.347656 Z M 24.898438 19.113281 Z M 24.898438 19.113281 " fill-opacity="1" fill-rule="nonzero"/></svg>